<?xml version="1.0" encoding="UTF-8" standalone="no"?><!DOCTYPE svg PUBLIC "-//W3C//DTD SVG 1.1//EN" "http://www.w3.org/Graphics/SVG/1.1/DTD/svg11.dtd"><svg width="100%" height="100%" viewBox="0 0 5642 2996" version="1.1" xmlns="http://www.w3.org/2000/svg" xmlns:xlink="http://www.w3.org/1999/xlink" xml:space="preserve" xmlns:serif="http://www.serif.com/" style="fill-rule:evenodd;clip-rule:evenodd;stroke-linecap:round;stroke-linejoin:round;stroke-miterlimit:1.5;"><g><g><circle cx="1696.22" cy="581.508" r="120.308" style="fill:#872330;stroke:#ebebeb;stroke-width:4.17px;"/><circle cx="1235.26" cy="1347.57" r="120.308" style="fill:#872330;stroke:#ebebeb;stroke-width:4.17px;"/><circle cx="1475.88" cy="2080.06" r="120.308" style="fill:#ebebeb;stroke:#ebebeb;stroke-width:4.17px;"/><circle cx="1652.61" cy="1023.65" r="120.308" style="fill:#872330;stroke:#ebebeb;stroke-width:4.17px;"/><circle cx="2045.33" cy="1122.69" r="120.308" style="fill:#872330;stroke:#ebebeb;stroke-width:4.17px;"/><circle cx="1475.88" cy="2080.06" r="120.308" style="fill:#872330;stroke:#ebebeb;stroke-width:4.17px;"/><circle cx="1925.02" cy="1947.5" r="120.308" style="fill:#872330;stroke:#ebebeb;stroke-width:4.17px;"/><circle cx="1804.71" cy="2411.52" r="120.308" style="fill:#872330;stroke:#ebebeb;stroke-width:4.17px;"/><circle cx="1684.4" cy="1571.86" r="120.308" style="fill:#872330;stroke:#ebebeb;stroke-width:4.17px;"/><circle cx="2045.33" cy="1552.82" r="120.308" style="fill:#872330;stroke:#ebebeb;stroke-width:4.17px;"/><circle cx="1261.43" cy="1002.38" r="120.308" style="fill:#872330;stroke:#ebebeb;stroke-width:4.17px;"/><circle cx="1235.26" cy="1696.06" r="120.308" style="fill:#872330;stroke:#ebebeb;stroke-width:4.17px;"/><path d="M1669.61,567.033l-484.021,418.225l14.795,17.125l484.017,-418.225l-14.792,-17.125Z" style="fill:#872330;stroke:#872330;stroke-width:4.17px;"/><path d="M1638.02,1023.65l-358.267,302.421l14.596,17.292l358.267,-302.421l-14.596,-17.292Z" style="fill:#872330;stroke:#872330;stroke-width:4.17px;"/><path d="M2029.63,1103.1l8.771,468.759l22.625,-0.421l-8.771,-468.763l-22.625,0.425Z" style="fill:#872330;stroke:#872330;stroke-width:4.17px;"/><path d="M1663.47,1605.98l-177.746,433.846l20.942,8.579l177.741,-433.846l-20.937,-8.579Z" style="fill:#872330;stroke:#872330;stroke-width:4.17px;"/><path d="M1916.76,1920.18l-436.466,171.204l8.262,21.067l436.467,-171.204l-8.263,-21.067Z" style="fill:#872330;stroke:#872330;stroke-width:4.17px;"/><path d="M1941.8,2016.31l-172.333,436.02l21.046,8.321l172.333,-436.021l-21.046,-8.32Z" style="fill:#872330;stroke:#872330;stroke-width:4.17px;"/><path d="M1240.18,1048.62l-32.429,596.683l22.6,1.229l32.425,-596.687l-22.596,-1.225Z" style="fill:#872330;stroke:#872330;stroke-width:4.17px;"/><path id="path847" d="M1574.26,2684.97c-177.763,-21.725 -329.955,-59.846 -448.096,-112.238c-314.875,-139.633 -496.825,-441.358 -473.613,-785.379c4.709,-69.75 38.354,-269.058 74.767,-442.908c97.254,-464.296 89.233,-667.284 -34.575,-874.959c-108.846,-182.583 -258.688,-295.575 -540.759,-407.775l-149.904,-59.625c985.417,74.013 1148.11,676.484 974.684,1453.46c-42.284,189.246 -43.779,433.779 -3.575,583.504c87.962,327.588 366.571,550.404 784.766,627.621l108.2,19.975l-88.541,6.187c-69.209,0.821 -139.467,-0.329 -203.354,-7.866Z" style="fill:#872330;fill-rule:nonzero;stroke:#ebebeb;stroke-width:4.17px;stroke-linecap:butt;stroke-miterlimit:2;"/><path id="path8471" serif:id="path847" d="M3129.83,2983.92c-177.762,-21.725 -329.95,-59.842 -448.096,-112.234c-314.871,-139.633 -496.825,-441.362 -473.608,-785.383c4.704,-69.75 38.35,-269.058 74.767,-442.908c97.25,-464.292 89.229,-667.279 -34.579,-874.959c-108.846,-182.583 -258.688,-295.575 -540.759,-407.77l-149.904,-59.625c985.421,74.012 1148.1,676.483 974.683,1453.46c-42.279,189.246 -43.779,433.779 -3.575,583.504c87.963,327.584 366.575,550.404 784.767,627.617l108.2,19.979l-88.542,6.188c-69.208,0.821 -139.466,-0.329 -203.354,-7.871Z" style="fill:#872330;fill-rule:nonzero;stroke:#ebebeb;stroke-width:4.17px;stroke-linecap:butt;stroke-miterlimit:2;"/><g><path d="M3179.4,715.254l0,1572.58l-146.025,0l0,-1572.58l146.025,0Zm509.967,763.825l-0,67.396l-516.704,0l-0,-67.396l516.704,0Zm96.6,-763.825l-0,69.642l-613.304,-0l-0,-69.642l613.304,0Zm-96.6,826.725l-0,148.275l-22.467,0l0,-33.7c0,-29.954 -10.483,-55.787 -31.45,-77.504c-20.967,-21.717 -46.429,-32.575 -76.383,-32.575l-0,-4.496l130.3,0Zm-0,-206.679l-0,148.271l-130.3,-0l-0,-4.492c29.954,-1.5 55.416,-13.108 76.383,-34.825c20.967,-21.716 31.45,-47.55 31.45,-77.504l0,-31.45l22.467,0Zm96.6,-557.142l-0,150.517l-22.467,0l0,-33.696c0,-29.954 -10.854,-55.791 -32.571,-77.508c-21.716,-21.717 -47.554,-32.575 -77.508,-32.575l-0,-6.738l132.546,0Zm-0,-103.341l-0,65.15l-274.075,-24.713c32.946,0 67.766,-2.246 104.462,-6.737c36.692,-4.496 70.767,-9.738 102.217,-15.729c31.45,-5.988 53.917,-11.98 67.396,-17.971Zm-745.85,1449.02l-0,164l-179.725,0l-0,-22.466l29.208,-0c38.937,-0 72.262,-13.855 99.971,-41.563c27.704,-27.708 42.308,-61.029 43.804,-99.971l6.742,0Zm-0,-1244.58l-6.742,0c-0,-38.937 -14.225,-72.262 -42.683,-99.971c-28.455,-27.704 -62.155,-41.558 -101.092,-41.558l-26.958,-0l-2.25,-22.467l179.725,0l-0,163.996Zm132.545,1244.58l6.738,0c1.5,38.942 16.104,72.263 43.808,99.971c27.709,27.709 61.034,41.563 99.971,41.563l29.204,-0l0,22.466l-179.721,0l0,-164Z" style="fill:#872330;fill-rule:nonzero;"/><path d="M4394.79,715.254l-0,1572.58l-146.025,0l-0,-1572.58l146.025,0Zm-139.284,1408.58l0,164l-179.725,0l0,-22.466l29.204,-0c38.942,-0 72.267,-13.855 99.971,-41.563c27.709,-27.708 42.313,-61.029 43.809,-99.971l6.741,0Zm0,-1244.58l-6.741,0c-1.496,-38.937 -16.1,-72.262 -43.809,-99.971c-27.704,-27.704 -61.029,-41.558 -99.971,-41.558l-29.204,-0l0,-22.467l179.725,0l0,163.996Zm132.546,1244.58l6.738,0c1.5,38.942 16.1,72.263 43.808,99.971c27.708,27.709 61.029,41.563 99.971,41.563l29.204,-0l-0,22.466l-179.721,0l0,-164Zm0,-1244.58l0,-163.996l179.721,0l-0,22.467l-29.204,-0c-38.942,-0 -72.263,13.854 -99.971,41.558c-27.708,27.709 -42.308,61.034 -43.808,99.971l-6.738,0Z" style="fill:#872330;fill-rule:nonzero;"/><path d="M5264.21,683.804c23.963,0 49.796,1.496 77.505,4.492c27.708,2.996 54.666,7.112 80.874,12.354c26.209,5.242 50.171,10.488 71.888,15.729c21.717,5.242 38.567,10.859 50.55,16.846l0,249.367l-20.221,-0c0,-71.888 -24.712,-128.425 -74.133,-169.613c-49.425,-41.187 -109.334,-61.779 -179.725,-61.779c-82.371,0 -149.021,25.833 -199.942,77.504c-50.921,51.671 -76.383,111.954 -76.383,180.846c-0,28.458 6.366,61.779 19.096,99.971c12.733,38.191 36.32,73.762 70.766,106.712l442.567,408.871c44.933,41.934 74.887,86.863 89.862,134.792c14.98,47.925 22.467,94.354 22.467,139.283c0,124.309 -37.817,225.404 -113.45,303.284c-75.633,77.879 -177.85,116.82 -306.654,116.82c-35.946,0 -78.254,-3.745 -126.929,-11.233c-48.675,-7.488 -95.85,-20.592 -141.534,-39.312c-45.679,-18.721 -83.495,-43.059 -113.45,-73.013c-4.491,-23.967 -6.737,-53.917 -6.737,-89.863c-0,-35.945 2.996,-73.762 8.987,-113.45c5.988,-39.691 14.225,-76.008 24.709,-108.958l20.221,0c-7.488,76.383 2.245,143.029 29.204,199.942c26.958,56.912 66.275,99.971 117.946,129.175c51.666,29.208 110.454,42.312 176.35,39.316c82.375,-4.495 153.141,-33.325 212.3,-86.491c59.158,-53.171 88.737,-124.684 88.737,-214.546c0,-43.433 -7.487,-82.746 -22.467,-117.942c-14.975,-35.196 -36.691,-65.525 -65.15,-90.987l-431.333,-399.883c-44.929,-41.934 -76.383,-87.988 -94.354,-138.163c-17.975,-50.171 -26.958,-96.975 -26.958,-140.408c-0,-62.9 14.975,-123.559 44.929,-181.967c29.954,-58.413 74.512,-105.963 133.671,-142.658c59.158,-36.692 131.42,-55.038 216.791,-55.038Zm280.817,22.463l-0,47.179l-170.738,-0l0,-47.179l170.738,-0Z" style="fill:#872330;fill-rule:nonzero;"/></g></g></g></svg>